<svg aria-hidden="true" style="position: absolute; width: 0; height: 0; overflow: hidden;" version="1.1" xmlns="http://www.w3.org/2000/svg" xmlns:xlink="http://www.w3.org/1999/xlink">
<defs>
<symbol id="icon-buttons" viewBox="0 0 32 32">
<path fill="#f53838" style="fill: var(--color1, #f53838)" d="M26.24 4.543h-20.48c-0.679 0-1.33 0.27-1.81 0.75s-0.75 1.131-0.75 1.81v5.12c0 0.679 0.27 1.33 0.75 1.81s1.131 0.75 1.81 0.75h20.48c0.679 0 1.33-0.27 1.81-0.75s0.75-1.131 0.75-1.81v-5.12c0-0.679-0.27-1.33-0.75-1.81s-1.131-0.75-1.81-0.75zM19.84 9.663c0 0.707-0.573 1.28-1.28 1.28s-1.28-0.573-1.28-1.28c0-0.707 0.573-1.28 1.28-1.28s1.28 0.573 1.28 1.28zM24.96 9.663c0 0.707-0.573 1.28-1.28 1.28s-1.28-0.573-1.28-1.28c0-0.707 0.573-1.28 1.28-1.28s1.28 0.573 1.28 1.28zM26.24 17.343h-20.48c-0.679 0-1.33 0.27-1.81 0.75s-0.75 1.131-0.75 1.81v5.12c0 0.679 0.27 1.33 0.75 1.81s1.131 0.75 1.81 0.75h20.48c0.679 0 1.33-0.27 1.81-0.75s0.75-1.131 0.75-1.81v-5.12c0-0.679-0.27-1.33-0.75-1.81s-1.131-0.75-1.81-0.75zM19.84 22.463c0 0.707-0.573 1.28-1.28 1.28s-1.28-0.573-1.28-1.28c0-0.707 0.573-1.28 1.28-1.28s1.28 0.573 1.28 1.28zM24.96 22.463c0 0.707-0.573 1.28-1.28 1.28s-1.28-0.573-1.28-1.28c0-0.707 0.573-1.28 1.28-1.28s1.28 0.573 1.28 1.28z"></path>
</symbol>
<symbol id="icon-person" viewBox="0 0 32 32">
<path fill="#f53838" style="fill: var(--color1, #f53838)" d="M16 14.527c1.222 0 2.394-0.486 3.258-1.35s1.35-2.036 1.35-3.258-0.485-2.394-1.35-3.258c-0.864-0.864-2.036-1.35-3.258-1.35s-2.394 0.486-3.258 1.35c-0.864 0.864-1.35 2.036-1.35 3.258s0.485 2.394 1.35 3.258c0.864 0.864 2.036 1.35 3.258 1.35zM9.47 28.351c-2.332 0-4.296-1.96-3.404-4.115 0.54-1.304 1.332-2.49 2.331-3.488s2.184-1.79 3.488-2.331c1.304-0.54 2.703-0.818 4.115-0.818s2.81 0.278 4.115 0.818c1.305 0.54 2.49 1.332 3.488 2.331s1.79 2.184 2.331 3.488c0.892 2.154-1.072 4.115-3.404 4.115h-13.059z"></path>
</symbol>
<symbol id="icon-point" viewBox="0 0 31 32">
<path fill="#f53838" style="fill: var(--color1, #f53838)" d="M24.32 12.223c0-1.177-0.232-2.342-0.682-3.429s-1.11-2.075-1.942-2.907c-0.832-0.832-1.82-1.492-2.907-1.942s-2.252-0.682-3.429-0.682c-1.177 0-2.342 0.232-3.429 0.682s-2.075 1.11-2.907 1.942c-0.832 0.832-1.492 1.82-1.942 2.907s-0.682 2.252-0.682 3.429c0 1.775 0.525 3.427 1.414 4.819h-0.010c3.021 4.73 7.556 11.821 7.556 11.821l7.556-11.821h-0.009c0.922-1.438 1.412-3.111 1.413-4.819zM15.36 16.063c-1.018 0-1.995-0.405-2.715-1.125s-1.125-1.697-1.125-2.715c0-1.018 0.405-1.995 1.125-2.715s1.697-1.125 2.715-1.125c1.018 0 1.995 0.405 2.715 1.125s1.125 1.697 1.125 2.715c0 1.018-0.405 1.995-1.125 2.715s-1.697 1.125-2.715 1.125z"></path>
</symbol>
<symbol id="icon-star" viewBox="0 0 30 32">
<path fill="#fea250" style="fill: var(--color2, #fea250)" d="M26.709 11.605l-7.468-1.085-3.338-6.768c-0.091-0.185-0.241-0.335-0.427-0.426-0.465-0.229-1.029-0.038-1.262 0.426l-3.338 6.768-7.468 1.085c-0.206 0.029-0.394 0.126-0.538 0.274-0.174 0.179-0.27 0.42-0.267 0.67s0.106 0.488 0.285 0.663l5.403 5.268-1.276 7.438c-0.030 0.173-0.011 0.351 0.055 0.514s0.176 0.304 0.318 0.407c0.142 0.103 0.31 0.165 0.485 0.177s0.35-0.024 0.506-0.106l6.679-3.512 6.679 3.512c0.182 0.097 0.394 0.129 0.597 0.094 0.512-0.088 0.856-0.574 0.768-1.085l-1.276-7.438 5.403-5.268c0.147-0.144 0.244-0.332 0.273-0.538 0.079-0.515-0.279-0.991-0.794-1.068z"></path>
</symbol>
<symbol id="icon-facebook" viewBox="0 0 32 32">
<path d="M19 6h5v-6h-5c-3.86 0-7 3.14-7 7v3h-4v6h4v16h6v-16h5l1-6h-6v-3c0-0.542 0.458-1 1-1z"></path>
</symbol>
<symbol id="icon-instagram" viewBox="0 0 32 32">
<path d="M16 2.881c4.275 0 4.781 0.019 6.462 0.094 1.563 0.069 2.406 0.331 2.969 0.55 0.744 0.288 1.281 0.638 1.837 1.194 0.563 0.563 0.906 1.094 1.2 1.838 0.219 0.563 0.481 1.412 0.55 2.969 0.075 1.688 0.094 2.194 0.094 6.463s-0.019 4.781-0.094 6.463c-0.069 1.563-0.331 2.406-0.55 2.969-0.288 0.744-0.637 1.281-1.194 1.837-0.563 0.563-1.094 0.906-1.837 1.2-0.563 0.219-1.413 0.481-2.969 0.55-1.688 0.075-2.194 0.094-6.463 0.094s-4.781-0.019-6.463-0.094c-1.563-0.069-2.406-0.331-2.969-0.55-0.744-0.288-1.281-0.637-1.838-1.194-0.563-0.563-0.906-1.094-1.2-1.837-0.219-0.563-0.481-1.413-0.55-2.969-0.075-1.688-0.094-2.194-0.094-6.463s0.019-4.781 0.094-6.463c0.069-1.563 0.331-2.406 0.55-2.969 0.288-0.744 0.638-1.281 1.194-1.838 0.563-0.563 1.094-0.906 1.838-1.2 0.563-0.219 1.412-0.481 2.969-0.55 1.681-0.075 2.188-0.094 6.463-0.094zM16 0c-4.344 0-4.887 0.019-6.594 0.094-1.7 0.075-2.869 0.35-3.881 0.744-1.056 0.412-1.95 0.956-2.837 1.85-0.894 0.888-1.438 1.781-1.85 2.831-0.394 1.019-0.669 2.181-0.744 3.881-0.075 1.713-0.094 2.256-0.094 6.6s0.019 4.887 0.094 6.594c0.075 1.7 0.35 2.869 0.744 3.881 0.413 1.056 0.956 1.95 1.85 2.837 0.887 0.887 1.781 1.438 2.831 1.844 1.019 0.394 2.181 0.669 3.881 0.744 1.706 0.075 2.25 0.094 6.594 0.094s4.888-0.019 6.594-0.094c1.7-0.075 2.869-0.35 3.881-0.744 1.050-0.406 1.944-0.956 2.831-1.844s1.438-1.781 1.844-2.831c0.394-1.019 0.669-2.181 0.744-3.881 0.075-1.706 0.094-2.25 0.094-6.594s-0.019-4.887-0.094-6.594c-0.075-1.7-0.35-2.869-0.744-3.881-0.394-1.063-0.938-1.956-1.831-2.844-0.887-0.887-1.781-1.438-2.831-1.844-1.019-0.394-2.181-0.669-3.881-0.744-1.712-0.081-2.256-0.1-6.6-0.1v0z"></path>
<path d="M16 7.781c-4.537 0-8.219 3.681-8.219 8.219s3.681 8.219 8.219 8.219 8.219-3.681 8.219-8.219c0-4.537-3.681-8.219-8.219-8.219zM16 21.331c-2.944 0-5.331-2.387-5.331-5.331s2.387-5.331 5.331-5.331c2.944 0 5.331 2.387 5.331 5.331s-2.387 5.331-5.331 5.331z"></path>
<path d="M26.462 7.456c0 1.060-0.859 1.919-1.919 1.919s-1.919-0.859-1.919-1.919c0-1.060 0.859-1.919 1.919-1.919s1.919 0.859 1.919 1.919z"></path>
</symbol>
<symbol id="icon-twitter" viewBox="0 0 32 32">
<path d="M32 7.075c-1.175 0.525-2.444 0.875-3.769 1.031 1.356-0.813 2.394-2.1 2.887-3.631-1.269 0.75-2.675 1.3-4.169 1.594-1.2-1.275-2.906-2.069-4.794-2.069-3.625 0-6.563 2.938-6.563 6.563 0 0.512 0.056 1.012 0.169 1.494-5.456-0.275-10.294-2.888-13.531-6.862-0.563 0.969-0.887 2.1-0.887 3.3 0 2.275 1.156 4.287 2.919 5.463-1.075-0.031-2.087-0.331-2.975-0.819 0 0.025 0 0.056 0 0.081 0 3.181 2.263 5.838 5.269 6.437-0.55 0.15-1.131 0.231-1.731 0.231-0.425 0-0.831-0.044-1.237-0.119 0.838 2.606 3.263 4.506 6.131 4.563-2.25 1.762-5.075 2.813-8.156 2.813-0.531 0-1.050-0.031-1.569-0.094 2.913 1.869 6.362 2.95 10.069 2.95 12.075 0 18.681-10.006 18.681-18.681 0-0.287-0.006-0.569-0.019-0.85 1.281-0.919 2.394-2.075 3.275-3.394z"></path>
</symbol>
<symbol id="icon-correct" viewBox="0 0 24 24"><path d="M12.1215 2.54932C6.60746 2.54932 2.12146 7.03532 2.12146 12.5493C2.12146 18.0633 6.60746 22.5493 12.1215 22.5493C17.6355 22.5493 22.1215 18.0633 22.1215 12.5493C22.1215 7.03532 17.6355 2.54932 12.1215 2.54932ZM10.1225 16.9623L7.11691 13.9632C6.72616 13.5733 6.72537 12.9405 7.11515 12.5496C7.50517 12.1585 8.13847 12.1578 8.52939 12.548L10.1205 14.1363L14.7075 9.54932C15.0979 9.15885 15.731 9.15885 16.1215 9.54932C16.5119 9.93978 16.5119 10.5729 16.1215 10.9633L10.1225 16.9623Z" fill="#2FAB73"/></symbol>
<symbol id="icon-correct2" viewBox="0 0 24 24"><path d="M11.3961 17.2796C11.2648 17.2798 11.1348 17.2542 11.0135 17.2041C10.8922 17.154 10.7819 17.0804 10.6891 16.9876L6.4471 12.7446C6.35153 12.6524 6.27527 12.5421 6.22277 12.4201C6.17028 12.2982 6.1426 12.167 6.14136 12.0342C6.14011 11.9014 6.16532 11.7697 6.21551 11.6468C6.26571 11.5238 6.33988 11.4121 6.43371 11.3182C6.52753 11.2242 6.63913 11.1499 6.76199 11.0995C6.88485 11.0492 7.01651 11.0238 7.14929 11.0248C7.28207 11.0259 7.4133 11.0534 7.53534 11.1057C7.65738 11.158 7.76778 11.2341 7.8601 11.3296L11.3951 14.8646L17.7601 8.50156C17.9476 8.31392 18.202 8.20845 18.4672 8.20836C18.7325 8.20827 18.987 8.31355 19.1746 8.50106C19.3622 8.68857 19.4677 8.94294 19.4678 9.20821C19.4679 9.47348 19.3626 9.72792 19.1751 9.91556L12.1031 16.9876C12.0103 17.0804 11.9 17.154 11.7787 17.2041C11.6574 17.2542 11.5274 17.2798 11.3961 17.2796Z" fill="#2FAB73"/></symbol>
<symbol id="icon-amazon" viewBox="0 0 101 32">
<path d="M62.862 24.604c-5.867 4.338-14.4 6.649-21.76 6.649-10.311 0-19.556-3.804-26.596-10.133-0.533-0.498-0.071-1.173 0.604-0.782 7.573 4.409 16.924 7.040 26.596 7.040 6.507 0 13.689-1.351 20.302-4.16 0.996-0.391 1.813 0.676 0.853 1.387z"></path>
<path d="M65.316 21.796c-0.747-0.96-4.978-0.462-6.862-0.213-0.569 0.071-0.676-0.427-0.142-0.782 3.378-2.382 8.889-1.671 9.529-0.889s-0.178 6.329-3.342 8.96c-0.498 0.391-0.96 0.178-0.747-0.356 0.711-1.778 2.311-5.724 1.564-6.72z"></path>
<path d="M58.56 4.089c0 0.32 0.284 0.569 0.604 0.569h5.369l-6.187 8.853c-0.391 0.569-0.391 1.209-0.391 1.564v2.347c0 0.356 0.391 0.711 0.747 0.533 3.484-1.884 7.716-1.707 10.88-0.036 0.391 0.213 0.747-0.178 0.747-0.533v-2.453c-0.036-0.32-0.142-0.676-0.533-0.889-1.778-0.996-3.876-1.28-5.867-1.244l5.333-7.609c0.498-0.711 0.782-1.138 0.782-1.458v-1.956c0-0.32-0.284-0.569-0.604-0.569h-10.311c-0.32 0-0.569 0.213-0.569 0.569v2.311zM20.978 18.418c0.356 0 0.604-0.249 0.64-0.533v-8.533c0-1.884-0.071-4.444 2.169-4.444 2.204 0 1.92 2.667 1.92 4.444v8.533c0 0.284 0.249 0.533 0.569 0.569h3.129c0.32 0 0.604-0.249 0.604-0.569v-8.533c0-0.924-0.036-2.276 0.284-3.093s1.138-1.316 1.884-1.316c0.924 0 1.6 0.32 1.849 1.387 0.142 0.64 0.071 2.347 0.071 3.022v8.533c0 0.284 0.249 0.533 0.569 0.569h3.093c0.32 0 0.604-0.249 0.604-0.569v-10.169c0-1.742 0.213-3.698-0.782-5.049-0.889-1.244-2.311-1.778-3.627-1.778-1.849 0-3.591 0.96-4.338 2.987-0.853-2.027-2.098-2.987-4.053-2.987-1.92 0-3.378 0.96-4.124 2.987h-0.071v-2.098c-0.036-0.284-0.249-0.533-0.569-0.533h-2.916c-0.32 0-0.604 0.249-0.604 0.569v16.071c0.036 0.284 0.284 0.498 0.569 0.533h3.129zM78.933 0.889c4.658 0 7.182 3.982 7.182 9.067 0 4.907-2.773 8.818-7.182 8.818-4.551 0-7.040-3.982-7.040-8.96-0.036-5.013 2.489-8.924 7.040-8.924zM78.933 4.196c-2.311 0-2.453 3.164-2.453 5.12s-0.036 6.151 2.418 6.151c2.418 0 2.56-3.378 2.56-5.44 0-1.351-0.071-2.987-0.462-4.267-0.356-1.138-1.067-1.564-2.062-1.564zM92.124 18.418c0.32 0 0.604-0.249 0.64-0.569v-8.676c0-1.102 0.071-2.062 0.498-3.058 0.356-0.782 1.067-1.28 1.813-1.28 2.169 0 1.956 2.56 1.956 4.338v8.747c0.036 0.249 0.284 0.462 0.569 0.498h3.129c0.32 0 0.569-0.213 0.604-0.498v-10.133c0-1.564 0-3.733-0.818-5.013-0.889-1.387-2.276-1.884-3.662-1.884-2.169 0-3.378 1.031-4.267 3.236h-0.071v-2.453c-0.071-0.249-0.284-0.462-0.569-0.462h-2.916c-0.32 0-0.569 0.249-0.604 0.533v16.107c0 0.284 0.249 0.533 0.569 0.569h3.129zM50.347 10.062c-2.276 0-4.658 0.498-4.658 3.164 0 1.351 0.711 2.276 1.92 2.276 0.889 0 1.671-0.533 2.169-1.422 0.604-1.102 0.569-2.133 0.569-3.342zM53.511 18.382c-0.213 0.178-0.498 0.213-0.747 0.071-1.031-0.853-1.244-1.28-1.813-2.098-1.707 1.742-2.951 2.276-5.156 2.276-2.631 0-4.693-1.636-4.693-4.871 0-2.56 1.387-4.267 3.342-5.12 1.707-0.747 4.089-0.889 5.902-1.102v-0.391c0-0.747 0.071-1.636-0.391-2.276-0.391-0.569-1.102-0.818-1.742-0.818-1.209 0-2.276 0.604-2.524 1.884-0.071 0.284-0.249 0.569-0.533 0.569l-3.022-0.32c-0.249-0.071-0.533-0.249-0.462-0.64 0.711-3.698 4.018-4.8 7.004-4.8 1.529 0 3.52 0.391 4.729 1.564 1.529 1.422 1.387 3.342 1.387 5.404v4.871c0 1.458 0.604 2.098 1.173 2.916 0.213 0.284 0.249 0.64 0 0.818-0.676 0.533-1.813 1.529-2.453 2.062zM9.28 10.062c-2.276 0-4.658 0.498-4.658 3.164 0 1.351 0.711 2.276 1.92 2.276 0.889 0 1.671-0.533 2.169-1.422 0.604-1.102 0.569-2.133 0.569-3.342zM12.409 18.382c-0.213 0.178-0.498 0.213-0.747 0.071-1.031-0.853-1.244-1.28-1.813-2.098-1.707 1.742-2.951 2.276-5.156 2.276-2.631 0-4.693-1.636-4.693-4.871 0-2.56 1.387-4.267 3.342-5.12 1.707-0.747 4.089-0.889 5.902-1.102v-0.391c0-0.747 0.071-1.636-0.391-2.276-0.391-0.569-1.102-0.818-1.742-0.818-1.209 0-2.276 0.604-2.524 1.884-0.071 0.284-0.249 0.569-0.533 0.569l-3.022-0.32c-0.249-0.071-0.533-0.249-0.462-0.64 0.711-3.698 4.018-4.8 7.004-4.8 1.529 0 3.52 0.391 4.729 1.564 1.529 1.422 1.387 3.342 1.387 5.404v4.871c0 1.458 0.604 2.098 1.173 2.916 0.213 0.284 0.249 0.64 0 0.818-0.676 0.533-1.813 1.529-2.453 2.062z"></path>
</symbol>
<symbol id="icon-discord" viewBox="0 0 101 32">
<path d="M14.789 13.773c-0.796 0-1.424 0.684-1.424 1.536s0.642 1.536 1.424 1.536c0.796 0 1.424-0.684 1.424-1.536s-0.642-1.536-1.424-1.536zM9.692 13.773c-0.796 0-1.424 0.684-1.424 1.536s0.642 1.536 1.424 1.536c0.796 0 1.424-0.684 1.424-1.536 0.014-0.852-0.628-1.536-1.424-1.536z"></path>
<path d="M21.577 2.153h-18.714c-1.578 0-2.863 1.285-2.863 2.863v18.714c0 1.578 1.285 2.863 2.863 2.863h15.837l-0.74-2.556 1.788 1.648 1.69 1.55 3.017 2.612v-24.831c-0.014-1.578-1.299-2.863-2.877-2.863zM16.186 20.238s-0.503-0.601-0.922-1.117c1.829-0.517 2.528-1.648 2.528-1.648-0.573 0.377-1.117 0.642-1.606 0.824-0.698 0.293-1.369 0.475-2.025 0.601-1.341 0.251-2.57 0.182-3.617-0.014-0.796-0.154-1.48-0.363-2.053-0.601-0.321-0.126-0.67-0.279-1.019-0.475-0.042-0.028-0.084-0.042-0.126-0.070-0.028-0.014-0.042-0.028-0.056-0.028-0.251-0.14-0.391-0.237-0.391-0.237s0.67 1.103 2.444 1.634c-0.419 0.531-0.936 1.145-0.936 1.145-3.086-0.098-4.259-2.109-4.259-2.109 0-4.455 2.011-8.072 2.011-8.072 2.011-1.494 3.91-1.452 3.91-1.452l0.14 0.168c-2.514 0.712-3.659 1.816-3.659 1.816s0.307-0.168 0.824-0.391c1.494-0.656 2.681-0.824 3.17-0.88 0.084-0.014 0.154-0.028 0.237-0.028 0.852-0.112 1.816-0.14 2.821-0.028 1.327 0.154 2.751 0.545 4.204 1.327 0 0-1.103-1.047-3.477-1.76l0.196-0.223s1.913-0.042 3.91 1.452c0 0 2.011 3.617 2.011 8.072 0-0.014-1.173 1.997-4.259 2.095zM37.274 8.13h-4.637v5.209l3.086 2.779v-5.056h1.648c1.047 0 1.564 0.503 1.564 1.313v3.868c0 0.81-0.489 1.355-1.564 1.355h-4.748v2.947h4.637c2.486 0.014 4.818-1.229 4.818-4.078v-4.162c0.014-2.905-2.318-4.176-4.804-4.176zM61.574 16.468v-4.273c0-1.536 2.765-1.885 3.603-0.349l2.556-1.033c-1.005-2.207-2.835-2.849-4.357-2.849-2.486 0-4.944 1.438-4.944 4.232v4.273c0 2.821 2.458 4.232 4.888 4.232 1.564 0 3.436-0.768 4.469-2.779l-2.737-1.257c-0.67 1.718-3.477 1.299-3.477-0.196zM53.125 12.781c-0.964-0.209-1.606-0.559-1.648-1.159 0.056-1.438 2.276-1.494 3.575-0.112l2.053-1.578c-1.285-1.564-2.737-1.983-4.232-1.983-2.276 0-4.483 1.285-4.483 3.715 0 2.36 1.816 3.631 3.813 3.938 1.019 0.14 2.151 0.545 2.123 1.243-0.084 1.327-2.821 1.257-4.064-0.251l-1.983 1.857c1.159 1.494 2.737 2.248 4.218 2.248 2.276 0 4.804-1.313 4.902-3.715 0.14-3.030-2.067-3.799-4.273-4.204zM43.768 20.532h3.128v-12.401h-3.128zM96.515 8.13h-4.637v5.209l3.086 2.779v-5.056h1.648c1.047 0 1.564 0.503 1.564 1.313v3.868c0 0.81-0.489 1.355-1.564 1.355h-4.748v2.947h4.65c2.486 0.014 4.818-1.229 4.818-4.078v-4.162c0-2.905-2.332-4.176-4.818-4.176zM73.766 7.963c-2.57 0-5.125 1.397-5.125 4.259v4.232c0 2.835 2.57 4.259 5.153 4.259 2.57 0 5.125-1.424 5.125-4.259v-4.232c0-2.849-2.584-4.259-5.153-4.259zM75.777 16.454c0 0.894-1.005 1.355-1.997 1.355-1.005 0-2.011-0.433-2.011-1.355v-4.232c0-0.908 0.978-1.397 1.955-1.397 1.019 0 2.053 0.433 2.053 1.397zM90.147 12.222c-0.070-2.905-2.053-4.078-4.609-4.078h-4.958v12.401h3.17v-3.938h0.559l2.877 3.938h3.91l-3.38-4.259c1.494-0.475 2.43-1.774 2.43-4.064zM85.594 13.898h-1.843v-2.835h1.843c1.969 0 1.969 2.835 0 2.835z"></path>
</symbol>
<symbol id="icon-netflix" viewBox="0 0 101 32">
<path d="M95.912 15.343l5.421 14.351c-1.598-0.228-3.194-0.514-4.82-0.771l-3.054-7.93-3.138 7.275c-1.54-0.257-3.053-0.343-4.593-0.543l5.506-12.553-4.994-12.866h4.622l2.795 7.188 2.996-7.188h4.678zM82.591 2.306h-4.194v24.877c1.369 0.086 2.795 0.142 4.194 0.313zM74.774 26.898c-3.822-0.257-7.646-0.484-11.554-0.571v-24.020h4.279v19.97c2.454 0.057 4.907 0.256 7.275 0.37zM58.655 12.035v4.279h-5.848v9.728h-4.221v-23.736h11.982v4.279h-7.76v5.45h5.848zM41.395 6.585v19.685c-1.427 0-2.881 0-4.28 0.057v-19.742h-4.422v-4.279h13.151v4.279zM28.072 16.541c-1.883 0-4.108 0-5.706 0.087v6.361c2.511-0.172 5.021-0.371 7.56-0.456v4.108l-11.839 0.942v-25.277h11.838v4.279h-7.559v5.763c1.655 0 4.194-0.086 5.706-0.086v4.28zM4.364 14.145v14.949c-1.539 0.172-2.909 0.372-4.364 0.6v-27.387h4.080l5.563 15.549v-15.549h4.28v25.618c-1.512 0.257-3.053 0.343-4.679 0.571z"></path>
</symbol>
<symbol id="icon-reddit" viewBox="0 0 101 32">
<path d="M93.673 10.567c0 1.219-0.988 2.207-2.207 2.207s-2.207-0.988-2.207-2.207c0-1.219 0.988-2.207 2.207-2.207s2.207 0.988 2.207 2.207z"></path>
<path d="M59.95 19.976c1.083 0 1.707-0.812 1.665-1.603-0.013-0.325-0.050-0.633-0.11-0.933l0.006 0.038c-0.666-2.872-2.997-4.996-5.766-4.996-3.289 0-5.953 2.977-5.953 6.64s2.664 6.64 5.953 6.64c2.061 0 3.539-0.749 4.601-1.936 0.52-0.583 0.416-1.478-0.208-1.915-0.52-0.354-1.166-0.229-1.644 0.166-0.458 0.396-1.332 1.187-2.748 1.187-1.665 0-3.080-1.436-3.393-3.331h7.598zM55.725 15.001c1.498 0 2.789 1.166 3.268 2.768h-6.536c0.479-1.623 1.769-2.768 3.268-2.768zM49.917 13.793c0-0.624-0.458-1.124-1.041-1.228-1.811-0.27-3.518 0.395-4.496 1.624v-0.167c0-0.77-0.625-1.249-1.249-1.249-0.689 0.002-1.247 0.56-1.249 1.248v10.2c0 0.666 0.499 1.249 1.166 1.291 0.729 0.042 1.332-0.52 1.332-1.249v-5.267c0-2.331 1.748-4.246 4.163-3.976h0.25c0.624-0.042 1.124-0.583 1.124-1.228zM92.715 15.126c-0.002-0.689-0.56-1.247-1.248-1.249h-0c-0.689 0.002-1.247 0.56-1.249 1.249v9.138c0.002 0.689 0.56 1.247 1.249 1.249h0c0.689-0.002 1.247-0.56 1.249-1.249v-0zM74.147 8.215c-0.002-0.689-0.56-1.247-1.249-1.249h-0c-0.689 0.002-1.247 0.56-1.249 1.249v5.558c-0.854-0.854-1.915-1.27-3.185-1.27-3.289 0-5.953 2.977-5.953 6.64s2.664 6.64 5.953 6.64c1.27 0 2.353-0.437 3.206-1.291 0.104 0.583 0.625 1.020 1.228 1.020 0.689-0.002 1.247-0.56 1.249-1.249v-0zM68.485 23.306c-1.915 0-3.456-1.852-3.456-4.163 0-2.29 1.54-4.163 3.456-4.163s3.456 1.853 3.456 4.163-1.561 4.163-3.456 4.163zM87.178 8.215c-0.002-0.689-0.56-1.247-1.249-1.249h-0c-0.689 0.002-1.247 0.56-1.249 1.249v5.558c-0.853-0.854-1.915-1.27-3.185-1.27-3.289 0-5.953 2.977-5.953 6.64s2.665 6.64 5.953 6.64c1.27 0 2.352-0.437 3.206-1.291 0.104 0.583 0.624 1.020 1.228 1.020 0.689-0.002 1.247-0.56 1.249-1.249v-0zM81.495 23.306c-1.915 0-3.455-1.852-3.455-4.163 0-2.29 1.54-4.163 3.455-4.163s3.456 1.853 3.456 4.163-1.54 4.163-3.456 4.163zM99.043 24.285v-9.284h1.103c0.583 0 1.103-0.437 1.145-1.041 0.042-0.645-0.478-1.186-1.103-1.186h-1.145v-1.749c0-0.666-0.499-1.249-1.166-1.291-0.729-0.042-1.332 0.52-1.332 1.249v1.811h-1.041c-0.583 0-1.103 0.437-1.145 1.041-0.042 0.645 0.479 1.187 1.103 1.187h1.062v9.284c0.002 0.689 0.56 1.247 1.249 1.249h0c0.729-0.042 1.27-0.583 1.27-1.27z"></path>
<path d="M34.888 16c0 9.634-7.81 17.444-17.444 17.444s-17.444-7.81-17.444-17.444c0-9.634 7.81-17.444 17.444-17.444s17.444 7.81 17.444 17.444z"></path>
<path d="M29.080 16c0-0.001 0-0.002 0-0.004 0-1.401-1.135-2.536-2.536-2.536-0.001 0-0.002 0-0.004 0h0c-0.687 0-1.311 0.27-1.769 0.708-1.748-1.249-4.142-2.061-6.807-2.165l1.166-5.454 3.789 0.812c0.046 0.964 0.839 1.728 1.81 1.728 1.001 0 1.812-0.811 1.812-1.812v-0c-0.001-1-0.811-1.81-1.811-1.811h-0c-0.71 0.002-1.324 0.413-1.619 1.010l-0.005 0.011-4.225-0.895c-0.125-0.021-0.25 0-0.333 0.062-0.104 0.062-0.166 0.166-0.187 0.291l-1.291 6.078c-2.706 0.083-5.142 0.895-6.911 2.165-0.458-0.438-1.080-0.708-1.766-0.708-0.001 0-0.003 0-0.004 0h0c-0.001 0-0.002 0-0.004 0-1.401 0-2.536 1.135-2.536 2.536 0 0.001 0 0.002 0 0.004v-0c0 1.041 0.624 1.915 1.499 2.311-0.040 0.227-0.063 0.488-0.063 0.754 0 0.006 0 0.011 0 0.017v-0.001c0 3.913 4.559 7.098 10.179 7.098s10.179-3.164 10.179-7.098c0-0.25-0.021-0.521-0.062-0.77 0.891-0.415 1.498-1.302 1.498-2.332v-0zM11.636 17.811c0.001-1 0.811-1.81 1.811-1.811h0c0.999 0 1.811 0.812 1.811 1.811s-0.812 1.811-1.811 1.811c-1 0.021-1.811-0.812-1.811-1.811zM21.774 22.62c-1.249 1.249-3.622 1.332-4.309 1.332-0.708 0-3.081-0.104-4.309-1.332-0.087-0.085-0.14-0.203-0.14-0.333s0.054-0.248 0.14-0.333l0-0c0.085-0.087 0.203-0.14 0.333-0.14s0.248 0.054 0.333 0.14l0 0c0.791 0.791 2.457 1.062 3.643 1.062s2.872-0.27 3.643-1.062c0.085-0.087 0.203-0.14 0.333-0.14s0.248 0.054 0.333 0.14l0 0c0.078 0.089 0.125 0.205 0.125 0.333s-0.047 0.245-0.125 0.334l0-0.001zM21.441 19.643c-0.999 0-1.811-0.812-1.811-1.811s0.812-1.811 1.811-1.811c1 0 1.811 0.811 1.811 1.811v0c0 0.978-0.812 1.811-1.811 1.811z"></path>
</symbol>
<symbol id="icon-spotify" viewBox="0 0 101 32">
<path d="M15.746 0.254c-8.697 0-15.746 7.050-15.746 15.747s7.050 15.746 15.746 15.746 15.746-7.050 15.746-15.746c0-8.697-7.050-15.747-15.746-15.747zM22.919 23.008c-0.185 0.289-0.505 0.478-0.869 0.478-0.205 0-0.396-0.060-0.557-0.164l0.004 0.002c-2.664-1.694-5.694-2.181-8.25-2.18-2.735-0.002-4.898 0.558-5.353 0.687-0.065 0.018-0.088 0.026-0.088 0.026h0.001c-0.091 0.029-0.195 0.046-0.304 0.046-0.569 0-1.030-0.461-1.030-1.030 0-0.461 0.302-0.85 0.719-0.982l0.007-0.002c0.062-0.018 2.605-0.803 6.047-0.804 2.806 0.001 6.237 0.524 9.355 2.501 0.289 0.186 0.477 0.505 0.477 0.869 0 0.205-0.060 0.396-0.163 0.556l0.002-0.004zM24.964 18.652c-0.221 0.37-0.62 0.614-1.076 0.614-0.235 0-0.455-0.065-0.642-0.177l0.006 0.003c-3.518-2.080-7.142-2.645-10.042-2.646-2.937-0.001-5.11 0.585-5.55 0.716-0.063 0.018-0.080 0.024-0.080 0.024-0.11 0.035-0.237 0.056-0.369 0.056-0.691 0-1.251-0.56-1.251-1.251 0-0.547 0.351-1.011 0.839-1.182l0.009-0.003c0.084-0.025 2.668-0.86 6.401-0.861 3.217-0.001 7.312 0.627 11.315 2.993 0.37 0.222 0.614 0.621 0.614 1.077 0 0.235-0.065 0.454-0.177 0.642l0.003-0.006zM25.928 14.515c-0.25 0-0.503-0.063-0.736-0.194-3.917-2.215-8.078-2.835-11.476-2.834-3.562-0.001-6.256 0.685-6.811 0.839-0.079 0.022-0.103 0.030-0.103 0.030-0.131 0.041-0.282 0.065-0.438 0.065-0.673 0-1.242-0.443-1.432-1.052l-0.003-0.011c-0.041-0.131-0.065-0.282-0.065-0.438 0-0.673 0.442-1.242 1.052-1.433l0.011-0.003c0.094-0.027 3.284-0.996 7.789-0.999 3.752 0.001 8.442 0.678 12.952 3.222 0.459 0.262 0.764 0.749 0.764 1.307 0 0.829-0.672 1.5-1.5 1.5-0.001 0-0.002 0-0.003 0h0zM54.719 12.036c-2.803 0-4.965 2.569-4.965 5.738s1.949 5.738 4.965 5.738c2.803 0 5.076-2.569 5.076-5.738s-2.273-5.738-5.076-5.738zM54.076 21.010c-1.662 0-2.924-1.449-2.924-3.237s1.262-3.237 2.924-3.237c1.795 0 2.924 1.449 2.924 3.237s-1.189 3.237-2.924 3.237z"></path>
<path d="M48.448 12.293h2.795v2.115l-0.625 2.060v2.869l0.644 2.372v4.837h-2.832zM66.416 12.023c-3.223 0-5.836 2.569-5.836 5.738s2.613 5.738 5.836 5.738 5.836-2.569 5.836-5.738-2.613-5.738-5.836-5.738zM66.404 21.072c-1.713 0-3.102-1.471-3.102-3.286s1.389-3.286 3.102-3.286c1.713 0 3.102 1.471 3.102 3.286s-1.389 3.286-3.102 3.286zM80.54 12.269h2.844v11.059h-2.844z"></path>
<path d="M83.752 9.155c0 0.961-0.779 1.741-1.741 1.741s-1.741-0.779-1.741-1.741c0-0.961 0.779-1.741 1.741-1.741s1.741 0.779 1.741 1.741z"></path>
<path d="M88.656 11.729v11.562h-2.844v-11.253s-0.252-4.068 3.556-3.987c0 0 1.128 0.024 2.035 0.368v2.373s-0.71-0.281-1.667-0.289c0 0-1.094-0.035-1.079 1.226zM76.604 19.819v-10.444h-2.844v10.852s-0.213 3.465 3.556 3.234c0 0 1.089 0 2.035-0.599v-2.302s-0.71 0.409-1.667 0.417c0 0-1.12 0.030-1.079-1.157z"></path>
<path d="M98.418 12.269l-2.626 7.601-2.922-7.601h-8.358v2.452h6.376l3.507 8.288c-0.293 1.251-1.3 1.177-1.3 1.177-0.711 0-1.496-0.491-1.496-0.491l-0.956 2.060c0.768 0.715 2.648 0.809 2.648 0.809 2.795 0 3.605-2.746 3.605-2.746l4.438-11.549zM72.431 12.275h6.996v2.451h-6.996zM45.597 12.637s-1.839-1.471-3.801-1.471c0 0-1.986-0.103-2.084 1.398 0 0-0.101 1.266 1.34 1.628 0 0 3.534 1.052 4.421 1.483 0 0 2.166 0.907 2.036 3.705 0 0 0.015 4.069-5.272 4.12 0 0-3.629 0.098-6.057-2.476l1.716-1.937s1.913 1.864 4.487 1.864c0 0 2.054 0.069 2.28-1.471 0 0 0.257-1.365-1.692-1.815 0 0-3.016-0.76-3.997-1.251 0 0-2.242-0.808-2.158-3.703 0 0 0.105-4.164 5.149-4.095 0 0 2.92-0.095 5.149 1.913z"></path>
</symbol>
</defs>
</svg>
